<?xml version="1.0" encoding="utf-8"?>
<!-- Generator: Adobe Illustrator 16.0.0, SVG Export Plug-In . SVG Version: 6.00 Build 0)  -->
<!DOCTYPE svg PUBLIC "-//W3C//DTD SVG 1.1//EN" "http://www.w3.org/Graphics/SVG/1.1/DTD/svg11.dtd">
<svg version="1.1" id="Layer_1" xmlns="http://www.w3.org/2000/svg" xmlns:xlink="http://www.w3.org/1999/xlink" x="0px" y="0px"
	 width="268.182px" height="270.455px" viewBox="0 0 268.182 270.455" enable-background="new 0 0 268.182 270.455"
	 xml:space="preserve">
<g>
	<g>
		<path fill-rule="evenodd" clip-rule="evenodd" fill="#020202" d="M38.199,145.714c0-35.419,0-70.852,0-106.382
			c28.467,0,56.935,0,85.408,0c-0.049,0.806-0.152,1.611-0.152,2.417c-0.007,33.808-0.007,67.629-0.007,101.437
			c0,0.848,0,1.682,0,2.682c-0.938,0-1.556,0-2.16,0c-27.085,0-54.163,0-81.234,0C39.435,145.867,38.824,145.756,38.199,145.714z"/>
		<path fill-rule="evenodd" clip-rule="evenodd" fill="#020202" d="M229.982,231.123c-28.459,0-56.934,0-85.4,0
			c0.047-0.807,0.145-1.611,0.145-2.416c0.008-33.836,0.008-67.658,0.008-101.48c0-0.792,0-1.583,0-2.514
			c28.494,0,56.789,0,85.248,0C229.982,160.257,229.982,195.689,229.982,231.123z"/>
		<path fill-rule="evenodd" clip-rule="evenodd" fill="#020202" d="M229.982,39.332c0,21.224,0,42.448,0,63.81
			c-28.391,0-56.678,0-85.248,0c0-0.833,0-1.611,0-2.389c0-19.668,0-39.336-0.008-59.004c0-0.806-0.098-1.611-0.145-2.417
			C173.049,39.332,201.523,39.332,229.982,39.332z"/>
		<path fill-rule="evenodd" clip-rule="evenodd" fill="#020202" d="M38.199,167.063c0.813,0.027,1.618,0.084,2.424,0.084
			c26.724,0.014,53.441,0.014,80.158,0.014c0.799,0,1.59,0,2.667,0c0,0.972,0,1.764,0,2.541c0,19.668,0,39.337,0.007,59.005
			c0,0.805,0.104,1.609,0.152,2.416c-28.474,0-56.941,0-85.408,0C38.199,209.759,38.199,188.426,38.199,167.063z"/>
	</g>
</g>
</svg>
