<?xml version="1.0" encoding="utf-8"?>
<!-- Generator: Adobe Illustrator 16.0.0, SVG Export Plug-In . SVG Version: 6.00 Build 0)  -->
<!DOCTYPE svg PUBLIC "-//W3C//DTD SVG 1.1//EN" "http://www.w3.org/Graphics/SVG/1.1/DTD/svg11.dtd">
<svg version="1.1" id="Layer_1" xmlns="http://www.w3.org/2000/svg" xmlns:xlink="http://www.w3.org/1999/xlink" x="0px" y="0px"
	 width="268.182px" height="270.455px" viewBox="0 0 268.182 270.455" enable-background="new 0 0 268.182 270.455"
	 xml:space="preserve">
<g>
	<g>
		<g>
			<path d="M134.091,23.408c-61.66,0-111.813,50.166-111.813,111.826c0,61.646,50.152,111.813,111.813,111.813
				s111.813-50.166,111.813-111.813C245.903,73.574,195.751,23.408,134.091,23.408z M134.091,237.728
				c-30.655,0-58.115-13.576-76.928-34.979c0.551-0.322,1.088-0.672,1.611-0.953c17.766-9.104,45.252-19.98,75.316-19.98
				s57.551,10.876,75.316,19.98c0.523,0.269,1.061,0.631,1.611,0.953C192.206,224.152,164.746,237.728,134.091,237.728z
				 M213.65,193.51c-18.665-9.587-47.628-21.015-79.56-21.015s-60.895,11.428-79.572,21.028c-1.088,0.55-2.136,1.194-3.21,1.88
				c-12.354-16.919-19.712-37.679-19.712-60.17c0-56.53,45.977-102.507,102.494-102.507s102.494,45.977,102.494,102.507
				c0,22.491-7.358,43.251-19.712,60.17C215.799,194.706,214.737,194.061,213.65,193.51z"/>
			<path d="M134.091,56.024c-29.541,0-53.59,24.035-53.59,53.576c0,29.555,24.049,53.591,53.59,53.591s53.59-24.036,53.59-53.591
				C187.681,80.059,163.632,56.024,134.091,56.024z M134.091,153.858c-24.398,0-44.271-19.846-44.271-44.258
				c0-24.397,19.873-44.258,44.271-44.258s44.271,19.86,44.271,44.258C178.362,134.012,158.489,153.858,134.091,153.858z"/>
		</g>
	</g>
</g>
</svg>
