<?xml version="1.0" encoding="utf-8"?>
<!-- Generator: Adobe Illustrator 16.0.0, SVG Export Plug-In . SVG Version: 6.00 Build 0)  -->
<!DOCTYPE svg PUBLIC "-//W3C//DTD SVG 1.1//EN" "http://www.w3.org/Graphics/SVG/1.1/DTD/svg11.dtd">
<svg version="1.1" id="Layer_1" xmlns="http://www.w3.org/2000/svg" xmlns:xlink="http://www.w3.org/1999/xlink" x="0px" y="0px"
	 width="268.182px" height="270.455px" viewBox="0 0 268.182 270.455" enable-background="new 0 0 268.182 270.455"
	 xml:space="preserve">
<g>
	<g>
		<path fill-rule="evenodd" clip-rule="evenodd" d="M224.68,135.793c0.007,25.943,0.021,51.887,0,77.817
			c-0.006,13.625-8.955,22.659-22.566,22.686c-45.273,0.039-90.545,0.039-135.804,0c-14.061-0.014-22.752-8.797-22.759-22.884
			c-0.007-41.969,0.033-83.924-0.065-125.893c-0.014-4.432,1.213-7.887,4.385-11.026c12.432-12.332,24.724-24.783,36.938-37.3
			c3.455-3.561,7.247-5.091,12.292-5.064c34.854,0.171,69.712,0.079,104.559,0.105c14.04,0,22.963,8.758,23.002,22.765
			C224.732,83.26,224.674,109.52,224.68,135.793z M64.443,96.568c-0.139,1.398-0.277,2.189-0.277,2.981
			c-0.014,37.167,0.039,74.349-0.099,111.53c-0.021,4.471,2.274,4.616,5.599,4.59c42.628-0.026,85.25-0.014,127.884-0.014
			c6.456,0,6.502-0.013,6.502-6.66c0.014-49.224-0.072-98.473,0.099-147.695c0.014-5.012-1.392-6.542-6.403-6.489
			c-29.247,0.198-58.488,0.093-87.742,0.119c-1.26,0.013-2.52,0.224-4.168,0.356c0,9.193,0.014,18.083-0.007,26.959
			c-0.026,8.784-5.368,14.244-14.093,14.31C82.822,96.621,73.913,96.568,64.443,96.568z"/>
		<path fill-rule="evenodd" clip-rule="evenodd" d="M155.429,118.278c8.573,0,16.461,0,24.348,0c3.37-0.014,2.922,2.506,2.922,4.55
			c0.026,16.83,0,33.646,0,50.476c-0.007,7.9-0.112,15.827,0.06,23.74c0.065,3.205-0.989,4.472-4.24,4.393
			c-6.443-0.172-12.88-0.093-19.316-0.053c-2.223,0-3.805-0.343-3.805-3.205C155.449,171.827,155.429,145.461,155.429,118.278z"/>
		<path fill-rule="evenodd" clip-rule="evenodd" d="M147.614,146.529c0,17.49,0.053,34.635-0.139,51.755
			c-0.02,1.042-2.058,2.915-3.211,2.954c-6.753,0.29-13.526,0.29-20.265,0c-1.174-0.039-3.219-1.912-3.226-2.954
			c-0.204-17.12-0.145-34.253-0.145-51.755C129.625,146.529,138.25,146.529,147.614,146.529z"/>
		<path fill-rule="evenodd" clip-rule="evenodd" d="M112.821,167c0,10.921,0.105,20.944-0.132,30.969
			c-0.026,1.16-1.873,3.231-2.94,3.244c-7.07,0.316-14.159,0.304-21.223,0c-1.042-0.039-2.842-2.137-2.875-3.323
			c-0.23-9.181-0.197-18.386,0.014-27.593c0.026-1.107,1.529-3.112,2.413-3.139C96.09,166.894,104.116,167,112.821,167z"/>
		<path fill-rule="evenodd" clip-rule="evenodd" d="M182.784,82.508c-18.703,0-36.495,0-55.198,0c0-3.614-0.29-7.202,0.179-10.684
			c0.145-1.029,2.387-2.532,3.692-2.546c15.853-0.171,31.708-0.197,47.554-0.013c1.267,0.026,3.436,1.688,3.601,2.822
			C183.094,75.412,182.784,78.881,182.784,82.508z"/>
		<path fill-rule="evenodd" clip-rule="evenodd" d="M182.698,103.387c-18.656,0-36.462,0-54.709,0c0-4.182,0-8.191,0-12.834
			c1.893-0.145,3.964-0.408,6.021-0.422c14.191-0.053,28.389,0.172,42.568-0.158c5.138-0.119,6.839,1.662,6.159,6.542
			C182.461,98.599,182.698,100.736,182.698,103.387z"/>
	</g>
</g>
</svg>
