<?xml version="1.0" encoding="utf-8"?>
<!-- Generator: Adobe Illustrator 16.0.0, SVG Export Plug-In . SVG Version: 6.00 Build 0)  -->
<!DOCTYPE svg PUBLIC "-//W3C//DTD SVG 1.1//EN" "http://www.w3.org/Graphics/SVG/1.1/DTD/svg11.dtd">
<svg version="1.1" id="Layer_1" xmlns="http://www.w3.org/2000/svg" xmlns:xlink="http://www.w3.org/1999/xlink" x="0px" y="0px"
	 width="268.182px" height="270.455px" viewBox="0 0 268.182 270.455" enable-background="new 0 0 268.182 270.455"
	 xml:space="preserve">
<g>
	<path fill-rule="evenodd" clip-rule="evenodd" d="M140.984,245.433c-4.601,0-9.187,0-13.787,0
		c-0.471-0.117-0.942-0.284-1.427-0.346c-5.029-0.734-10.114-1.22-15.088-2.211c-42.715-8.548-78.101-45.277-85.083-88.228
		c-0.665-4.157-1.15-8.354-1.718-12.532c0-4.586,0-9.186,0-13.778c0.721-4.877,1.247-9.789,2.134-14.631
		c8.202-43.872,44.89-79.764,88.866-86.996c4.101-0.658,8.216-1.129,12.317-1.69c4.6,0,9.186,0,13.787,0
		c0.553,0.111,1.08,0.27,1.648,0.346c5.666,0.887,11.402,1.414,16.973,2.674c42.438,9.706,75.855,45.264,83.018,88.194
		c0.68,4.018,1.137,8.063,1.678,12.103c0,4.593,0,9.192,0,13.778c-0.125,0.555-0.277,1.095-0.348,1.656
		c-0.762,5.112-1.232,10.266-2.299,15.288c-8.813,42.736-45.361,77.692-88.367,84.668
		C149.213,244.394,145.099,244.858,140.984,245.433z M134.029,232.521c53.702,0.062,97.29-43.478,97.358-97.221
		c0.07-53.716-43.449-97.297-97.22-97.366c-53.702-0.069-97.29,43.47-97.373,97.214C36.739,188.842,80.271,232.444,134.029,232.521z
		"/>
	<path fill-rule="evenodd" clip-rule="evenodd" d="M127.738,141.556c0-17.298,0-34.492,0-51.811c4.212,0,8.341,0,12.719,0
		c0,12.913,0,25.846,0,38.946c13.135,0,26.02,0,39.057,0c0,4.365,0,8.542,0,12.865C162.348,141.556,145.141,141.556,127.738,141.556
		z"/>
	<path fill-rule="evenodd" clip-rule="evenodd" d="M82.044,91.83c-3.865-3.852-7.828-7.828-11.666-11.68
		c2.827-2.84,5.792-5.792,8.618-8.646c3.879,3.859,7.842,7.835,11.708,11.701C87.864,86.032,84.899,88.983,82.044,91.83z"/>
	<path fill-rule="evenodd" clip-rule="evenodd" d="M197.734,80.365c-3.714,3.713-7.662,7.641-11.389,11.382
		c-2.827-2.847-5.793-5.792-8.535-8.542c3.602-3.616,7.578-7.586,11.333-11.348C191.748,74.442,194.713,77.386,197.734,80.365z"/>
	<path fill-rule="evenodd" clip-rule="evenodd" d="M78.831,198.97c-2.799-2.784-5.723-5.701-8.479-8.458
		c3.907-3.914,7.87-7.891,11.666-11.68c2.688,2.688,5.653,5.659,8.465,8.472C86.811,190.969,82.821,194.939,78.831,198.97z"/>
	<path fill-rule="evenodd" clip-rule="evenodd" d="M177.422,187.167c2.854-2.875,5.791-5.792,8.59-8.591
		c3.881,3.9,7.871,7.884,11.694,11.715c-2.799,2.792-5.764,5.757-8.591,8.583C185.32,195.078,181.357,191.115,177.422,187.167z"/>
	<path fill-rule="evenodd" clip-rule="evenodd" d="M127.793,50.958c4.295,0,8.41,0,12.636,0c0,5.653,0,11.215,0,16.952
		c-4.129,0-8.313,0-12.636,0C127.793,62.354,127.793,56.743,127.793,50.958z"/>
	<path fill-rule="evenodd" clip-rule="evenodd" d="M49.874,128.878c5.736,0,11.278,0,16.972,0c0,4.205,0,8.334,0,12.636
		c-5.583,0-11.181,0-16.972,0C49.874,137.392,49.874,133.222,49.874,128.878z"/>
	<path fill-rule="evenodd" clip-rule="evenodd" d="M218.363,128.919c0,4.289,0,8.418,0,12.65c-5.639,0-11.223,0-16.944,0
		c0-4.15,0-8.327,0-12.65C206.961,128.919,212.586,128.919,218.363,128.919z"/>
	<path fill-rule="evenodd" clip-rule="evenodd" d="M127.793,202.462c4.295,0,8.41,0,12.636,0c0,5.666,0,11.229,0,16.958
		c-4.115,0-8.299,0-12.636,0C127.793,213.865,127.793,208.253,127.793,202.462z"/>
</g>
</svg>
