<?xml version="1.0" encoding="utf-8"?>
<!-- Generator: Adobe Illustrator 16.0.0, SVG Export Plug-In . SVG Version: 6.00 Build 0)  -->
<!DOCTYPE svg PUBLIC "-//W3C//DTD SVG 1.1//EN" "http://www.w3.org/Graphics/SVG/1.1/DTD/svg11.dtd">
<svg version="1.1" id="Layer_1" xmlns="http://www.w3.org/2000/svg" xmlns:xlink="http://www.w3.org/1999/xlink" x="0px" y="0px"
	 width="268.182px" height="270.455px" viewBox="0 0 268.182 270.455" enable-background="new 0 0 268.182 270.455"
	 xml:space="preserve">
<g>
	<g>
		<path fill-rule="evenodd" clip-rule="evenodd" d="M-0.336,200.869c0.597-2.28,1.071-4.592,1.806-6.812
			c3.161-9.658,10.118-15.766,18.743-20.571c28.745-16.103,59.518-22.776,92.305-20.495c25.821,1.791,49.867,9.275,72.016,22.745
			c11.089,6.75,16.622,16.714,16.737,29.603c0.13,15.03,0.03,30.092,0.03,45.138c0,0.688,0,1.362,0,2.372
			c-67.332,0-134.48,0-201.637,0C-0.336,235.522-0.336,218.196-0.336,200.869z"/>
		<path fill-rule="evenodd" clip-rule="evenodd" d="M268.518,252.848c-16.691,0-33.375,0-50.41,0c0-1.102,0-2.035,0-2.953
			c0-14.603,0.092-29.205-0.023-43.822c-0.146-19.653-8.434-34.822-25.408-44.984c-4.117-2.465-8.449-4.547-12.689-6.797
			c-0.742-0.413-1.492-0.796-2.181-1.332c13.53,0.566,26.679,3.016,39.528,7.072c12.138,3.826,23.609,9.122,34.478,15.734
			c9.062,5.51,14.487,13.439,16.263,23.878c0.068,0.429,0.291,0.812,0.443,1.225C268.518,218.196,268.518,235.522,268.518,252.848z"
			/>
		<path fill-rule="evenodd" clip-rule="evenodd" d="M100.395,17.607c32.457-0.046,58.822,26.22,58.898,58.638
			c0.076,32.557-26.304,58.99-58.845,58.976c-32.419-0.016-58.761-26.357-58.769-58.776C41.672,44.01,67.976,17.653,100.395,17.607z
			"/>
		<path fill-rule="evenodd" clip-rule="evenodd" d="M151.005,132.342c16.201-15.321,25.056-33.796,25.041-55.99
			c-0.016-22.178-8.909-40.623-24.98-55.806c19.921-7.271,46.792-0.949,62.855,19.577c16.163,20.618,16.821,49.133,1.661,70.347
			C200.818,131.133,174.048,140.301,151.005,132.342z"/>
	</g>
</g>
</svg>
