<?xml version="1.0" encoding="utf-8"?>
<!-- Generator: Adobe Illustrator 16.0.0, SVG Export Plug-In . SVG Version: 6.00 Build 0)  -->
<!DOCTYPE svg PUBLIC "-//W3C//DTD SVG 1.1//EN" "http://www.w3.org/Graphics/SVG/1.1/DTD/svg11.dtd">
<svg version="1.1" id="Layer_1" xmlns="http://www.w3.org/2000/svg" xmlns:xlink="http://www.w3.org/1999/xlink" x="0px" y="0px"
	 width="268.182px" height="270.455px" viewBox="0 0 268.182 270.455" enable-background="new 0 0 268.182 270.455"
	 xml:space="preserve">
<g>
	<g>
		<path fill-rule="evenodd" clip-rule="evenodd" d="M191.985,22.917c5.857,0,11.702,0,17.546,0c0,5.812,0,11.623,0,17.553
			c3.822,0,7.316-0.033,10.822,0.007c14.25,0.157,25.991,11.741,26.005,25.997c0.065,51.661,0.065,103.322,0,154.977
			c-0.026,8.642-3.81,15.589-10.639,20.896c-3.624,2.804-7.866,4.012-12.135,5.193c-59.68,0-119.332,0-179.011,0
			c-0.473-0.15-0.919-0.354-1.392-0.453c-7.749-1.668-13.869-5.752-17.73-12.66c-1.668-2.988-2.495-6.455-3.678-9.699
			c0-53.814,0-107.636,0-161.45c0.105-0.178,0.289-0.349,0.315-0.539c1.747-12.233,12.897-22.931,27.712-22.281
			c2.889,0.118,5.778,0.007,8.826,0.007c0-6.035,0-11.794,0-17.546c5.844,0,11.689,0,17.546,0c0,5.805,0,11.623,0,17.408
			c38.757,0,77.225,0,115.812,0C191.985,34.434,191.985,28.675,191.985,22.917z M228.838,105.552c-63.304,0-126.357,0-189.517,0
			c0,0.952,0,1.747,0,2.548c0,37.221,0,74.435,0,111.648c0,6.869,3.362,10.244,10.191,10.244c56.382,0,112.765,0,169.134,0
			c6.829,0,10.191-3.382,10.191-10.244c0-37.286,0-74.572,0-111.871C228.838,107.162,228.838,106.432,228.838,105.552z
			 M39.348,87.698c63.33,0,126.344,0,189.464,0c0-7.31,0.132-14.474-0.039-21.618c-0.092-4.064-3.428-7.611-7.486-7.939
			c-3.835-0.295-7.709-0.059-11.78-0.059c0,5.877,0,11.604,0,17.316c-5.963,0-11.689,0-17.573,0c0-5.845,0-11.512,0-17.258
			c-38.639,0-77.107,0-115.812,0c0,5.838,0,11.571,0,17.244c-5.976,0-11.702,0-17.572,0c0-5.844,0-11.518,0-17.323
			c-3.94,0-7.749-0.196-11.531,0.06c-4.045,0.27-7.5,3.743-7.618,7.795C39.216,73.132,39.348,80.349,39.348,87.698z"/>
		<path fill-rule="evenodd" clip-rule="evenodd" d="M55.226,141.236c0-5.745,0-11.412,0-17.25c5.7,0,11.413,0,17.284,0
			c0,5.687,0,11.406,0,17.25C66.771,141.236,61.044,141.236,55.226,141.236z"/>
		<path fill-rule="evenodd" clip-rule="evenodd" d="M107.668,123.946c0,5.772,0,11.446,0,17.271c-5.739,0-11.479,0-17.31,0
			c0-5.726,0-11.439,0-17.271C96.058,123.946,101.731,123.946,107.668,123.946z"/>
		<path fill-rule="evenodd" clip-rule="evenodd" d="M125.346,141.223c0-5.818,0-11.427,0-17.225c5.752,0,11.466,0,17.362,0
			c0,5.647,0,11.374,0,17.225C136.982,141.223,131.256,141.223,125.346,141.223z"/>
		<path fill-rule="evenodd" clip-rule="evenodd" d="M160.544,123.861c5.831,0,11.438,0,17.23,0c0,5.752,0,11.465,0,17.35
			c-5.647,0-11.373,0-17.23,0C160.544,135.497,160.544,129.784,160.544,123.861z"/>
		<path fill-rule="evenodd" clip-rule="evenodd" d="M195.623,123.926c5.766,0,11.439,0,17.258,0c0,5.713,0,11.433,0,17.297
			c-5.688,0-11.413,0-17.258,0C195.623,135.47,195.623,129.751,195.623,123.926z"/>
		<path fill-rule="evenodd" clip-rule="evenodd" d="M72.51,176.375c-5.818,0-11.492,0-17.271,0c0-5.766,0-11.438,0-17.283
			c5.673,0,11.387,0,17.271,0C72.51,164.751,72.51,170.478,72.51,176.375z"/>
		<path fill-rule="evenodd" clip-rule="evenodd" d="M107.615,176.375c-5.831,0-11.505,0-17.283,0c0-5.771,0-11.438,0-17.283
			c5.673,0,11.399,0,17.283,0C107.615,164.751,107.615,170.478,107.615,176.375z"/>
		<path fill-rule="evenodd" clip-rule="evenodd" d="M142.761,159.072c0,5.824,0,11.492,0,17.271c-5.753,0-11.426,0-17.284,0
			c0-5.674,0-11.387,0-17.271C131.138,159.072,136.851,159.072,142.761,159.072z"/>
		<path fill-rule="evenodd" clip-rule="evenodd" d="M160.557,159.012c5.831,0,11.492,0,17.271,0c0,5.766,0,11.439,0,17.277
			c-5.674,0-11.399,0-17.271,0C160.557,170.636,160.557,164.91,160.557,159.012z"/>
		<path fill-rule="evenodd" clip-rule="evenodd" d="M195.597,176.342c0-5.766,0-11.439,0-17.265c5.727,0,11.439,0,17.297,0
			c0,5.707,0,11.42,0,17.265C207.207,176.342,201.533,176.342,195.597,176.342z"/>
		<path fill-rule="evenodd" clip-rule="evenodd" d="M72.614,194.152c0,5.838,0,11.445,0,17.237c-5.766,0-11.465,0-17.349,0
			c0-5.661,0-11.387,0-17.237C60.991,194.152,66.705,194.152,72.614,194.152z"/>
		<path fill-rule="evenodd" clip-rule="evenodd" d="M90.279,211.389c0-5.766,0-11.427,0-17.231c5.805,0,11.505,0,17.362,0
			c0,5.713,0,11.387,0,17.231C101.968,211.389,96.242,211.389,90.279,211.389z"/>
		<path fill-rule="evenodd" clip-rule="evenodd" d="M125.398,211.416c0-5.838,0-11.505,0-17.284c5.778,0,11.439,0,17.283,0
			c0,5.687,0,11.407,0,17.284C137.021,211.416,131.295,211.416,125.398,211.416z"/>
		<path fill-rule="evenodd" clip-rule="evenodd" d="M160.583,194.092c5.766,0,11.426,0,17.218,0c0,5.792,0,11.512,0,17.35
			c-5.7,0-11.373,0-17.218,0C160.583,205.775,160.583,200.055,160.583,194.092z"/>
	</g>
</g>
</svg>
