<?xml version="1.0" encoding="utf-8"?>
<!-- Generator: Adobe Illustrator 16.0.0, SVG Export Plug-In . SVG Version: 6.00 Build 0)  -->
<!DOCTYPE svg PUBLIC "-//W3C//DTD SVG 1.1//EN" "http://www.w3.org/Graphics/SVG/1.1/DTD/svg11.dtd">
<svg version="1.1" id="Layer_1" xmlns="http://www.w3.org/2000/svg" xmlns:xlink="http://www.w3.org/1999/xlink" x="0px" y="0px"
	 width="268.182px" height="270.455px" viewBox="0 0 268.182 270.455" enable-background="new 0 0 268.182 270.455"
	 xml:space="preserve">
<g>
	<g>
		<path fill-rule="evenodd" clip-rule="evenodd" d="M32.52,134.824c0-32.662-0.008-65.324,0.008-98.002
			c0-13.266,6.733-20.061,19.821-20.076c42.484,0,84.968-0.062,127.452,0.139c2.772,0.016,6.209,1.467,8.193,3.397
			c14.934,14.548,29.674,29.265,44.198,44.199c1.938,1.992,3.305,5.452,3.32,8.247c0.193,53.712,0.154,107.407,0.131,161.119
			c-0.008,13.188-6.748,19.86-20.014,19.86c-54.507,0.015-109.013,0.015-163.52,0c-12.726,0-19.582-6.903-19.59-19.69
			C32.52,200.952,32.52,167.888,32.52,134.824z M49.724,33.764c0,67.98,0,135.375,0,202.769c56.484,0,112.511,0,168.647,0
			c0-50.932,0-101.461,0-152.517c-16.88,0-33.234,0-50.299,0c0-17.034,0-33.527,0-50.252
			C128.314,33.764,89.274,33.764,49.724,33.764z"/>
		<path fill-rule="evenodd" clip-rule="evenodd" d="M134.591,186.281c18.833,0,37.659,0,56.491,0c6.579,0,10.425,2.873,10.595,7.938
			c0.186,5.128-3.606,8.633-10.069,8.648c-38.269,0.047-76.528,0.047-114.789-0.046c-6.733-0.016-10.293-3.166-10.309-8.386
			c-0.007-5.02,3.884-8.139,10.378-8.154C96.123,186.265,115.357,186.281,134.591,186.281z"/>
		<path fill-rule="evenodd" clip-rule="evenodd" d="M134.043,134.886c-19.026,0-38.044,0-57.063-0.016
			c-6.679,0-10.347-2.857-10.417-8.016c-0.069-5.266,3.444-8.199,10.185-8.199c38.253-0.031,76.498-0.031,114.75,0
			c6.479,0,9.915,2.718,10.108,7.705c0.2,5.282-3.367,8.51-9.892,8.525c-19.227,0.077-38.446,0.031-57.672,0.031
			C134.043,134.902,134.043,134.886,134.043,134.886z"/>
		<path fill-rule="evenodd" clip-rule="evenodd" d="M134.059,152.492c18.825,0,37.642-0.016,56.467,0
			c7.382,0.015,11.004,2.625,11.104,7.938c0.116,5.313-3.652,8.37-10.756,8.386c-37.45,0.046-74.891,0.077-112.341-0.031
			c-2.88,0-6.687-0.123-8.417-1.853c-1.984-1.962-3.583-6.379-2.671-8.648c1.019-2.549,4.996-5.467,7.752-5.545
			C94.802,152.275,114.431,152.492,134.059,152.492z"/>
		<path fill-rule="evenodd" clip-rule="evenodd" d="M108.724,84.186c-10.818,0-21.636,0.031-32.446-0.016
			c-5.853-0.031-9.799-3.351-9.775-8.139c0.023-5.05,3.544-8.354,9.729-8.386c21.628-0.123,43.249-0.107,64.876,0
			c6.324,0.016,9.49,3.043,9.505,8.355c0.008,5.482-2.973,8.123-9.459,8.153C130.345,84.217,119.527,84.186,108.724,84.186z"/>
	</g>
</g>
</svg>
