<?xml version="1.0" encoding="iso-8859-1"?>
<!-- Generator: Adobe Illustrator 19.0.0, SVG Export Plug-In . SVG Version: 6.00 Build 0)  -->
<svg version="1.1" id="Capa_1" xmlns="http://www.w3.org/2000/svg" xmlns:xlink="http://www.w3.org/1999/xlink" x="0px" y="0px"
	 viewBox="0 0 512 512" style="enable-background:new 0 0 512 512;" xml:space="preserve">
<path style="fill:#303C42;" d="M405.333,512h-12.625c-4.51,0-8.542-2.844-10.052-7.094c-3.021-8.521-11.063-14.24-19.99-14.24
	c-8.927,0-16.969,5.719-19.99,14.24c-1.51,4.25-5.542,7.094-10.052,7.094h-46.583c-4.51,0-8.542-2.844-10.052-7.094
	c-3.021-8.521-11.063-14.24-19.99-14.24c-8.927,0-16.969,5.719-19.99,14.24c-1.51,4.25-5.542,7.094-10.052,7.094h-46.583
	c-4.51,0-8.542-2.844-10.052-7.094c-3.021-8.521-11.063-14.24-19.99-14.24c-8.927,0-16.969,5.719-19.99,14.24
	c-1.51,4.25-5.542,7.094-10.052,7.094h-12.625C83.135,512,64,492.865,64,469.333V42.667C64,19.135,83.135,0,106.667,0h12.625
	c4.51,0,8.542,2.844,10.052,7.094c3.021,8.521,11.063,14.24,19.99,14.24c8.927,0,16.969-5.719,19.99-14.24
	C170.833,2.844,174.865,0,179.375,0h46.583c4.51,0,8.542,2.844,10.052,7.094c3.021,8.521,11.063,14.24,19.99,14.24
	c8.927,0,16.969-5.719,19.99-14.24C277.5,2.844,281.531,0,286.042,0h46.583c4.51,0,8.542,2.844,10.052,7.094
	c3.021,8.521,11.063,14.24,19.99,14.24c8.927,0,16.969-5.719,19.99-14.24C384.167,2.844,388.198,0,392.708,0h12.625
	C428.865,0,448,19.135,448,42.667v426.667C448,492.865,428.865,512,405.333,512z"/>
<path style="fill:#F2F2F2;" d="M399.479,490.667h5.854c11.76,0,21.333-9.573,21.333-21.333V42.667
	c0-11.76-9.573-21.333-21.333-21.333h-5.854c-7.521,13.01-21.5,21.333-36.813,21.333s-29.292-8.323-36.813-21.333h-33.042
	c-7.521,13.01-21.5,21.333-36.813,21.333s-29.292-8.323-36.813-21.333h-33.042c-7.521,13.01-21.5,21.333-36.813,21.333
	s-29.292-8.323-36.813-21.333h-5.854c-11.76,0-21.333,9.573-21.333,21.333v426.667c0,11.76,9.573,21.333,21.333,21.333h5.854
	c7.521-13.01,21.5-21.333,36.813-21.333s29.292,8.323,36.813,21.333h33.042c7.521-13.01,21.5-21.333,36.813-21.333
	s29.292,8.323,36.813,21.333h33.042c7.521-13.01,21.5-21.333,36.813-21.333S391.958,477.656,399.479,490.667z"/>
<path style="opacity:0.1;enable-background:new    ;" d="M405.333,469.333h-5.854c-7.521-11.828-21.5-19.395-36.813-19.395
	s-29.292,7.566-36.813,19.395h-33.042c-7.521-11.828-21.5-19.395-36.813-19.395s-29.292,7.566-36.813,19.395h-33.042
	c-7.521-11.828-21.5-19.395-36.813-19.395s-29.292,7.566-36.813,19.395h-5.854c-11.76,0-21.333-8.703-21.333-19.395v19.395
	c0,11.76,9.573,21.333,21.333,21.333h5.854c7.521-13.01,21.5-21.333,36.813-21.333s29.292,8.323,36.813,21.333h33.042
	c7.521-13.01,21.5-21.333,36.813-21.333s29.292,8.323,36.813,21.333h33.042c7.521-13.01,21.5-21.333,36.813-21.333
	s29.292,8.323,36.813,21.333h5.854c11.76,0,21.333-9.573,21.333-21.333v-19.395C426.667,460.63,417.094,469.333,405.333,469.333z"/>
<path style="opacity:0.5;fill:#FFFFFF;enable-background:new    ;" d="M405.333,21.333h-5.854
	c-7.521,13.01-21.5,21.333-36.813,21.333s-29.292-8.323-36.813-21.333h-33.042c-7.521,13.01-21.5,21.333-36.813,21.333
	s-29.292-8.323-36.813-21.333h-33.042c-7.521,13.01-21.5,21.333-36.813,21.333s-29.292-8.323-36.813-21.333h-5.854
	c-11.76,0-21.333,9.573-21.333,21.333V62.06c0-10.691,9.573-19.393,21.333-19.393h5.854c7.521,11.827,21.5,19.393,36.813,19.393
	s29.292-7.566,36.813-19.393h33.042c7.521,11.827,21.5,19.393,36.813,19.393s29.292-7.566,36.813-19.393h33.042
	c7.521,11.827,21.5,19.393,36.813,19.393s29.292-7.566,36.813-19.393h5.854c11.76,0,21.333,8.702,21.333,19.393V42.667
	C426.667,30.906,417.094,21.333,405.333,21.333z"/>
<g>
	<path style="fill:#303C42;" d="M373.333,192H138.667c-5.896,0-10.667-4.771-10.667-10.667c0-5.896,4.771-10.667,10.667-10.667
		h234.667c5.896,0,10.667,4.771,10.667,10.667C384,187.229,379.229,192,373.333,192z"/>
	<path style="fill:#303C42;" d="M373.333,128H138.667c-5.896,0-10.667-4.771-10.667-10.667s4.771-10.667,10.667-10.667h234.667
		c5.896,0,10.667,4.771,10.667,10.667S379.229,128,373.333,128z"/>
	<path style="fill:#303C42;" d="M266.667,320h-128c-5.896,0-10.667-4.771-10.667-10.667s4.771-10.667,10.667-10.667h128
		c5.896,0,10.667,4.771,10.667,10.667S272.563,320,266.667,320z"/>
	<path style="fill:#303C42;" d="M373.333,256H138.667c-5.896,0-10.667-4.771-10.667-10.667c0-5.896,4.771-10.667,10.667-10.667
		h234.667c5.896,0,10.667,4.771,10.667,10.667C384,251.229,379.229,256,373.333,256z"/>
	<path style="fill:#303C42;" d="M266.667,384h-128c-5.896,0-10.667-4.771-10.667-10.667s4.771-10.667,10.667-10.667h128
		c5.896,0,10.667,4.771,10.667,10.667S272.563,384,266.667,384z"/>
	<path style="fill:#303C42;" d="M352,405.333h-21.333c-5.896,0-10.667-4.771-10.667-10.667c0-5.896,4.771-10.667,10.667-10.667H352
		c5.885,0,10.667-4.781,10.667-10.667s-4.781-10.667-10.667-10.667c-17.646,0-32-14.354-32-32c0-17.646,14.354-32,32-32h21.333
		c5.896,0,10.667,4.771,10.667,10.667S379.229,320,373.333,320H352c-5.885,0-10.667,4.781-10.667,10.667
		c0,5.885,4.781,10.667,10.667,10.667c17.646,0,32,14.354,32,32S369.646,405.333,352,405.333z"/>
	<path style="fill:#303C42;" d="M352,320c-5.896,0-10.667-4.771-10.667-10.667v-10.667c0-5.896,4.771-10.667,10.667-10.667
		c5.896,0,10.667,4.771,10.667,10.667v10.667C362.667,315.229,357.896,320,352,320z"/>
	<path style="fill:#303C42;" d="M352,416c-5.896,0-10.667-4.771-10.667-10.667v-10.667c0-5.896,4.771-10.667,10.667-10.667
		c5.896,0,10.667,4.771,10.667,10.667v10.667C362.667,411.229,357.896,416,352,416z"/>
</g>
<linearGradient id="SVGID_1_" gradientUnits="userSpaceOnUse" x1="-46.0957" y1="639.7961" x2="-23.3106" y2="629.1726" gradientTransform="matrix(21.3333 0 0 -21.3333 996.3334 13791.667)">
	<stop  offset="0" style="stop-color:#FFFFFF;stop-opacity:0.2"/>
	<stop  offset="1" style="stop-color:#FFFFFF;stop-opacity:0"/>
</linearGradient>
<path style="fill:url(#SVGID_1_);" d="M405.333,512h-12.625c-4.51,0-8.542-2.844-10.052-7.094
	c-3.021-8.521-11.063-14.24-19.99-14.24c-8.927,0-16.969,5.719-19.99,14.24c-1.51,4.25-5.542,7.094-10.052,7.094h-46.583
	c-4.51,0-8.542-2.844-10.052-7.094c-3.021-8.521-11.063-14.24-19.99-14.24c-8.927,0-16.969,5.719-19.99,14.24
	c-1.51,4.25-5.542,7.094-10.052,7.094h-46.583c-4.51,0-8.542-2.844-10.052-7.094c-3.021-8.521-11.063-14.24-19.99-14.24
	c-8.927,0-16.969,5.719-19.99,14.24c-1.51,4.25-5.542,7.094-10.052,7.094h-12.625C83.135,512,64,492.865,64,469.333V42.667
	C64,19.135,83.135,0,106.667,0h12.625c4.51,0,8.542,2.844,10.052,7.094c3.021,8.521,11.063,14.24,19.99,14.24
	c8.927,0,16.969-5.719,19.99-14.24C170.833,2.844,174.865,0,179.375,0h46.583c4.51,0,8.542,2.844,10.052,7.094
	c3.021,8.521,11.063,14.24,19.99,14.24c8.927,0,16.969-5.719,19.99-14.24C277.5,2.844,281.531,0,286.042,0h46.583
	c4.51,0,8.542,2.844,10.052,7.094c3.021,8.521,11.063,14.24,19.99,14.24c8.927,0,16.969-5.719,19.99-14.24
	C384.167,2.844,388.198,0,392.708,0h12.625C428.865,0,448,19.135,448,42.667v426.667C448,492.865,428.865,512,405.333,512z"/>
<g>
</g>
<g>
</g>
<g>
</g>
<g>
</g>
<g>
</g>
<g>
</g>
<g>
</g>
<g>
</g>
<g>
</g>
<g>
</g>
<g>
</g>
<g>
</g>
<g>
</g>
<g>
</g>
<g>
</g>
</svg>
