<svg height="500pt" viewBox="0 -3 500.36687 500" width="500pt" xmlns="http://www.w3.org/2000/svg"><path d="m368 352.183594v-288c-.027344-22.082032-17.917969-39.972656-40-40v-16c0-4.417969-3.582031-8-8-8h-32c-4.417969 0-8 3.582031-8 8v16h-32v-16c0-4.417969-3.582031-8-8-8h-32c-4.417969 0-8 3.582031-8 8v16h-32v-16c0-4.417969-3.582031-8-8-8h-32c-4.417969 0-8 3.582031-8 8v16h-32v-16c0-4.417969-3.582031-8-8-8h-32c-4.417969 0-8 3.582031-8 8v16c-22.082031.027344-39.9726562 17.917968-40 40v288c.0273438 22.082031 17.917969 39.972656 40 40h288c22.082031-.027344 39.972656-17.917969 40-40zm-72-336h16v32h-16zm-80 0h16v32h-16zm-80 0h16v32h-16zm-80 0h16v32h-16zm-16 24v16c0 4.417968 3.582031 8 8 8h32c4.417969 0 8-3.582032 8-8v-16h32v16c0 4.417968 3.582031 8 8 8h32c4.417969 0 8-3.582032 8-8v-16h32v16c0 4.417968 3.582031 8 8 8h32c4.417969 0 8-3.582032 8-8v-16h32v16c0 4.417968 3.582031 8 8 8h32c4.417969 0 8-3.582032 8-8v-16c13.253906 0 24 10.746094 24 24v24h-336v-24c0-13.253906 10.746094-24 24-24zm-24 312v-248h336v248c0 13.253906-10.746094 24-24 24h-288c-13.253906 0-24-10.746094-24-24zm0 0"/><path d="m80 128.183594h-32c-4.417969 0-8 3.582031-8 8v32c0 4.417968 3.582031 8 8 8h32c4.417969 0 8-3.582032 8-8v-32c0-4.417969-3.582031-8-8-8zm-8 32h-16v-16h16zm0 0"/><path d="m160 128.183594h-32c-4.417969 0-8 3.582031-8 8v32c0 4.417968 3.582031 8 8 8h32c4.417969 0 8-3.582032 8-8v-32c0-4.417969-3.582031-8-8-8zm-8 32h-16v-16h16zm0 0"/><path d="m240 128.183594h-32c-4.417969 0-8 3.582031-8 8v32c0 4.417968 3.582031 8 8 8h32c4.417969 0 8-3.582032 8-8v-32c0-4.417969-3.582031-8-8-8zm-8 32h-16v-16h16zm0 0"/><path d="m288 176.183594h32c4.417969 0 8-3.582032 8-8v-32c0-4.417969-3.582031-8-8-8h-32c-4.417969 0-8 3.582031-8 8v32c0 4.417968 3.582031 8 8 8zm8-32h16v16h-16zm0 0"/><path d="m80 208.183594h-32c-4.417969 0-8 3.582031-8 8v32c0 4.417968 3.582031 8 8 8h32c4.417969 0 8-3.582032 8-8v-32c0-4.417969-3.582031-8-8-8zm-8 32h-16v-16h16zm0 0"/><path d="m160 208.183594h-32c-4.417969 0-8 3.582031-8 8v32c0 4.417968 3.582031 8 8 8h32c4.417969 0 8-3.582032 8-8v-32c0-4.417969-3.582031-8-8-8zm-8 32h-16v-16h16zm0 0"/><path d="m240 208.183594h-32c-4.417969 0-8 3.582031-8 8v32c0 4.417968 3.582031 8 8 8h32c4.417969 0 8-3.582032 8-8v-32c0-4.417969-3.582031-8-8-8zm-8 32h-16v-16h16zm0 0"/><path d="m288 256.183594h32c4.417969 0 8-3.582032 8-8v-32c0-4.417969-3.582031-8-8-8h-32c-4.417969 0-8 3.582031-8 8v32c0 4.417968 3.582031 8 8 8zm8-32h16v16h-16zm0 0"/><path d="m80 288.183594h-32c-4.417969 0-8 3.582031-8 8v32c0 4.417968 3.582031 8 8 8h32c4.417969 0 8-3.582032 8-8v-32c0-4.417969-3.582031-8-8-8zm-8 32h-16v-16h16zm0 0"/><path d="m160 288.183594h-32c-4.417969 0-8 3.582031-8 8v32c0 4.417968 3.582031 8 8 8h32c4.417969 0 8-3.582032 8-8v-32c0-4.417969-3.582031-8-8-8zm-8 32h-16v-16h16zm0 0"/><path d="m240 288.183594h-32c-4.417969 0-8 3.582031-8 8v32c0 4.417968 3.582031 8 8 8h32c4.417969 0 8-3.582032 8-8v-32c0-4.417969-3.582031-8-8-8zm-8 32h-16v-16h16zm0 0"/><path d="m328 296.183594c0-4.417969-3.582031-8-8-8h-32c-4.417969 0-8 3.582031-8 8v32c0 4.417968 3.582031 8 8 8h32c4.417969 0 8-3.582032 8-8zm-16 24h-16v-16h16zm0 0"/><path d="m493.335938 322.160156-11.3125-11.3125c-9.496094-9.074218-24.449219-9.074218-33.945313 0l-130.101563 130.136719c-1.226562 1.222656-2.019531 2.8125-2.265624 4.527344l-5.65625 39.589843c-.328126 2.296876.355468 4.625 1.875 6.378907 1.519531 1.753906 3.726562 2.757812 6.046874 2.757812.378907.003907.757813-.023437 1.136719-.078125l39.589844-5.65625c1.714844-.246094 3.304687-1.039062 4.527344-2.265625l130.105469-130.136719c9.375-9.371093 9.375-24.570312 0-33.941406zm-34.28125 45.597656-10.796876-11.476562c-1.953124-2.109375-4.886718-3.011719-7.683593-2.359375-2.800781.648437-5.035157 2.75-5.855469 5.503906-.820312 2.753907-.101562 5.734375 1.882812 7.8125l11.132813 11.839844-78.847656 78.847656-22.628907-22.628906 96.140626-96.167969 22.65625 22.65625zm-131.648438 109.019532 3.769531-26.402344 3.769531-3.765625 22.65625 22.628906-3.769531 3.769531zm154.617188-132-5.65625 5.652344-22.632813-22.628907 5.65625-5.65625c3.164063-3.027343 8.148437-3.027343 11.3125 0l11.3125 11.320313c3.125 3.121094 3.125 8.1875 0 11.3125zm0 0"/></svg>