<?xml version="1.0" encoding="iso-8859-1"?>
<!-- Generator: Adobe Illustrator 19.0.0, SVG Export Plug-In . SVG Version: 6.00 Build 0)  -->
<svg version="1.1" id="Layer_1" xmlns="http://www.w3.org/2000/svg" xmlns:xlink="http://www.w3.org/1999/xlink" x="0px" y="0px"
	 viewBox="0 0 512 512" style="enable-background:new 0 0 512 512;" xml:space="preserve">
<g>
	<g>
		<g>
			<path d="M384,0H128c-23.521,0-42.667,19.135-42.667,42.667v426.667C85.333,492.865,104.479,512,128,512h256
				c23.521,0,42.667-19.135,42.667-42.667V42.667C426.667,19.135,407.521,0,384,0z M405.333,469.333
				c0,11.76-9.563,21.333-21.333,21.333H128c-11.771,0-21.333-9.573-21.333-21.333v-42.667h298.667V469.333z M405.333,405.333
				H106.667V42.667c0-11.76,9.563-21.333,21.333-21.333h256c11.771,0,21.333,9.573,21.333,21.333V405.333z"/>
			<path d="M245.333,64h21.333c5.896,0,10.667-4.771,10.667-10.667c0-5.896-4.771-10.667-10.667-10.667h-21.333
				c-5.896,0-10.667,4.771-10.667,10.667C234.667,59.229,239.438,64,245.333,64z"/>
			<path d="M224,469.333h64c5.896,0,10.667-4.771,10.667-10.667S293.896,448,288,448h-64c-5.896,0-10.667,4.771-10.667,10.667
				S218.104,469.333,224,469.333z"/>
			<circle cx="373.333" cy="53.333" r="10.667"/>
			<path d="M330.667,202.667h-53.333v-85.333c0-4.771-3.167-8.969-7.771-10.26c-4.604-1.323-9.479,0.604-11.979,4.667
				L172.25,250.406c-2.021,3.292-2.104,7.427-0.229,10.802c1.896,3.365,5.458,5.458,9.313,5.458h53.333V352
				c0,4.771,3.167,8.969,7.771,10.26c0.958,0.271,1.938,0.406,2.896,0.406c3.646,0,7.104-1.865,9.083-5.073l85.333-138.667
				c2.021-3.292,2.104-7.427,0.229-10.802C338.083,204.76,334.521,202.667,330.667,202.667z M256,314.313V256
				c0-5.896-4.771-10.667-10.667-10.667h-44.917L256,155.021v58.313c0,5.896,4.771,10.667,10.667,10.667h44.917L256,314.313z"/>
		</g>
	</g>
</g>
<g>
</g>
<g>
</g>
<g>
</g>
<g>
</g>
<g>
</g>
<g>
</g>
<g>
</g>
<g>
</g>
<g>
</g>
<g>
</g>
<g>
</g>
<g>
</g>
<g>
</g>
<g>
</g>
<g>
</g>
</svg>
